<?xml version="1.0" standalone="no"?><!DOCTYPE svg PUBLIC "-//W3C//DTD SVG 1.1//EN" "http://www.w3.org/Graphics/SVG/1.1/DTD/svg11.dtd"><svg t="1526181508449" class="icon" style="" viewBox="0 0 1255 1024" version="1.1" xmlns="http://www.w3.org/2000/svg" p-id="2921" xmlns:xlink="http://www.w3.org/1999/xlink" width="19.609375" height="16"><defs><style type="text/css"></style></defs><path d="M165.16129 0H33.032258C13.212903 0 0 13.212903 0 33.032258s13.212903 33.032258 33.032258 33.032258h132.129032c19.819355 0 33.032258-13.212903 33.032258-33.032258s-13.212903-33.032258-33.032258-33.032258zM165.16129 462.451613H33.032258c-16.516129 0-33.032258 13.212903-33.032258 33.032258 0 16.516129 13.212903 33.032258 33.032258 33.032258h132.129032c16.516129 0 33.032258-13.212903 33.032258-33.032258 0-16.516129-13.212903-33.032258-33.032258-33.032258zM1222.193548 0H363.354839c-19.819355 0-33.032258 13.212903-33.032258 33.032258s13.212903 33.032258 33.032258 33.032258h858.838709c19.819355 0 33.032258-13.212903 33.032258-33.032258s-13.212903-33.032258-33.032258-33.032258zM165.16129 957.935484H33.032258c-16.516129 0-33.032258 13.212903-33.032258 33.032258 0 16.516129 13.212903 33.032258 33.032258 33.032258h132.129032c16.516129 0 33.032258-13.212903 33.032258-33.032258 0-16.516129-13.212903-33.032258-33.032258-33.032258zM1222.193548 462.451613H363.354839c-16.516129 0-33.032258 13.212903-33.032258 33.032258 0 16.516129 13.212903 33.032258 33.032258 33.032258h858.838709c16.516129 0 33.032258-13.212903 33.032258-33.032258 0-16.516129-13.212903-33.032258-33.032258-33.032258zM1222.193548 957.935484H363.354839c-16.516129 0-33.032258 13.212903-33.032258 33.032258 0 16.516129 13.212903 33.032258 33.032258 33.032258h858.838709c16.516129 0 33.032258-13.212903 33.032258-33.032258 0-16.516129-13.212903-33.032258-33.032258-33.032258z" p-id="2922" fill="#1296db"></path></svg>